<svg width="20" height="21" viewBox="0 0 20 21" fill="none" xmlns="http://www.w3.org/2000/svg">
<g clip-path="url(#clip0_320_727)">
<path d="M10 0.855469C7.28333 0.855469 6.94417 0.867969 5.8775 0.915469C4.8125 0.965469 4.0875 1.13297 3.45 1.38047C2.78251 1.63133 2.17787 2.02495 1.67833 2.5338C1.16904 3.03298 0.775352 3.63772 0.525 4.30547C0.2775 4.94297 0.109167 5.66797 0.06 6.73297C0.01 7.79964 0 8.1388 0 10.8555C0 13.5721 0.0125 13.9113 0.06 14.978C0.11 16.0421 0.2775 16.768 0.525 17.4055C0.776077 18.0728 1.16966 18.6774 1.67833 19.1771C2.17773 19.6862 2.78241 20.0798 3.45 20.3305C4.08833 20.5771 4.81333 20.7463 5.8775 20.7955C6.94417 20.8455 7.28333 20.8555 10 20.8555C12.7167 20.8555 13.0558 20.843 14.1225 20.7955C15.1867 20.7455 15.9125 20.5771 16.55 20.3305C17.2172 20.0791 17.8218 19.6855 18.3217 19.1771C18.8309 18.6779 19.2245 18.0732 19.475 17.4055C19.7217 16.768 19.8908 16.0421 19.94 14.978C19.99 13.9113 20 13.5721 20 10.8555C20 8.1388 19.9875 7.79964 19.94 6.73297C19.89 5.6688 19.7217 4.94214 19.475 4.30547C19.2238 3.63815 18.8302 3.03358 18.3217 2.5338C17.8226 2.02434 17.2178 1.63063 16.55 1.38047C15.9125 1.13297 15.1867 0.964635 14.1225 0.915469C13.0558 0.865469 12.7167 0.855469 10 0.855469ZM10 2.65547C12.6692 2.65547 12.9875 2.6688 14.0417 2.71464C15.0167 2.76047 15.5458 2.92214 15.8975 3.06047C16.3658 3.2413 16.6975 3.45797 17.0492 3.80714C17.3983 4.15714 17.615 4.48964 17.7958 4.95797C17.9325 5.30964 18.0958 5.8388 18.14 6.8138C18.1875 7.8688 18.1983 8.18547 18.1983 10.8555C18.1983 13.5255 18.1858 13.843 18.1367 14.8971C18.0858 15.8721 17.9233 16.4013 17.7858 16.753C17.6232 17.1869 17.3675 17.58 17.0367 17.9046C16.7134 18.2357 16.3206 18.4908 15.8867 18.6513C15.5367 18.788 14.9992 18.9513 14.0242 18.9955C12.9625 19.043 12.65 19.0538 9.975 19.0538C7.29917 19.0538 6.98667 19.0413 5.92583 18.9921C4.95 18.9413 4.4125 18.7788 4.0625 18.6413C3.62825 18.4806 3.23556 18.2246 2.91333 17.8921C2.57882 17.5711 2.32226 17.1777 2.16333 16.7421C2.02583 16.3921 1.86417 15.8546 1.81333 14.8796C1.77583 13.8296 1.7625 13.5055 1.7625 10.843C1.7625 8.17964 1.77583 7.85464 1.81333 6.79214C1.86417 5.81714 2.02583 5.28047 2.16333 4.93047C2.33833 4.45547 2.5625 4.13047 2.91333 3.77964C3.2625 3.43047 3.58833 3.20547 4.0625 3.0313C4.4125 2.89297 4.93833 2.73047 5.91333 2.68047C6.97583 2.64297 7.28833 2.63047 9.9625 2.63047L10 2.65547ZM10 5.72047C9.32566 5.72047 8.65793 5.85329 8.03492 6.11135C7.41191 6.36941 6.84584 6.74765 6.36901 7.22448C5.89218 7.7013 5.51394 8.26738 5.25588 8.89039C4.99782 9.5134 4.865 10.1811 4.865 10.8555C4.865 11.5298 4.99782 12.1975 5.25588 12.8205C5.51394 13.4436 5.89218 14.0096 6.36901 14.4865C6.84584 14.9633 7.41191 15.3415 8.03492 15.5996C8.65793 15.8576 9.32566 15.9905 10 15.9905C11.3619 15.9905 12.668 15.4495 13.631 14.4865C14.594 13.5235 15.135 12.2174 15.135 10.8555C15.135 9.49358 14.594 8.18747 13.631 7.22448C12.668 6.26148 11.3619 5.72047 10 5.72047ZM10 14.1888C8.15833 14.1888 6.66667 12.6971 6.66667 10.8555C6.66667 9.0138 8.15833 7.52214 10 7.52214C11.8417 7.52214 13.3333 9.0138 13.3333 10.8555C13.3333 12.6971 11.8417 14.1888 10 14.1888ZM16.5383 5.51797C16.5268 5.82849 16.3953 6.12243 16.1715 6.33803C15.9477 6.55362 15.6491 6.67407 15.3383 6.67407C15.0276 6.67407 14.729 6.55362 14.5052 6.33803C14.2814 6.12243 14.1499 5.82849 14.1383 5.51797C14.1383 5.19971 14.2648 4.89448 14.4898 4.66944C14.7148 4.4444 15.0201 4.31797 15.3383 4.31797C15.6566 4.31797 15.9618 4.4444 16.1869 4.66944C16.4119 4.89448 16.5383 5.19971 16.5383 5.51797Z" fill="#23004E"/>
</g>
<defs>
<clipPath id="clip0_320_727">
<rect width="20" height="20" fill="white" transform="translate(0 0.855469)"/>
</clipPath>
</defs>
</svg>
